<?xml version="1.0" encoding="UTF-8" standalone="no"?>
<svg
   id="master-artboard"
   viewBox="0 0 103.34265 103.84095"
   version="1.1"
   x="0px"
   y="0px"
   width="103.34264"
   height="103.84095"
   sodipodi:docname="coppelia-robotics-outlines3.svg"
   inkscape:version="1.1.2 (0a00cf5339, 2022-02-04)"
   xmlns:inkscape="http://www.inkscape.org/namespaces/inkscape"
   xmlns:sodipodi="http://sodipodi.sourceforge.net/DTD/sodipodi-0.dtd"
   xmlns="http://www.w3.org/2000/svg"
   xmlns:svg="http://www.w3.org/2000/svg">
  <defs
     id="defs35" />
  <sodipodi:namedview
     id="namedview33"
     pagecolor="#ffffff"
     bordercolor="#666666"
     borderopacity="1.0"
     inkscape:pageshadow="2"
     inkscape:pageopacity="0.0"
     inkscape:pagecheckerboard="0"
     showgrid="false"
     inkscape:zoom="4.2210347"
     inkscape:cx="70.48035"
     inkscape:cy="61.004"
     inkscape:window-width="1310"
     inkscape:window-height="746"
     inkscape:window-x="56"
     inkscape:window-y="0"
     inkscape:window-maximized="1"
     inkscape:current-layer="master-artboard" />
  <path
     d="M 103.34264,51.67132 A 51.671315,51.671315 0 0 1 51.67132,103.34263 51.671315,51.671315 0 0 1 0,51.67132 51.671315,51.671315 0 0 1 51.67132,0 51.671315,51.671315 0 0 1 103.34264,51.67132 Z"
     class="cls-1"
     id="svg_2"
     style="fill:#d32a2a;stroke-width:9.06037" />
  <path
     class="cls-2"
     d="m 88.75546,12.78419 c 0,0.72483 -2.06577,1.54932 0,1.47684 -0.0906,2.30133 -1.94798,-0.19027 -3.42483,0.4802 -0.45301,1.5765 1.58557,0.68859 1.94798,1.45872 -0.79731,1.91174 -1.92079,-0.20839 -3.43388,0.97852 A 80.410822,80.410822 0 0 1 68.18841,36.27774 28.766688,28.766688 0 0 1 56.40992,56.35553 c 0.41678,11.77849 -4.37616,22.922746 -3.44294,34.266334 0.40771,4.530188 2.20167,10.664066 -2.9265,13.219086 -1.53121,-3.33422 0.76107,-7.375144 -2.46443,-10.274464 0.63423,-1.177849 1.26846,-2.346637 1.96611,-3.433882 C 45.75492,79.722234 48.36431,67.66288 47.09585,53.89111 A 307.65407,307.65407 0 0 1 17.19662,37.70022 C 11.40704,36.18714 4.30371,33.7952 4.44867,27.92407 c 4.53019,-1.42247 6.94025,4.37617 11.27111,6.34227 3.15301,1.42248 7.61977,1.07818 11.2711,2.46442 2.41006,0.90604 4.3218,3.19831 6.34227,3.92314 2.4916,0.84262 6.13387,0.65235 9.28688,1.45872 5.43622,1.35906 13.26439,5.49059 12.24963,-3.42482 -8.43521,2.39194 -14.27915,-5.17347 -20.56705,-1.95704 -0.50738,-0.86074 1.63992,-0.33524 1.46778,-1.4859 -1.20503,-1.86644 -3.32516,2.28321 -3.43388,0.49832 0,-0.26275 -0.31712,0.37147 -0.48927,0 4.34898,-7.30266 21.04725,3.24361 27.40764,-3.92314 0.1359,-3.92315 -5.16442,-4.11341 -5.36374,-7.32985 -0.22651,-3.67851 3.47012,-4.802 8.79762,-4.8926 2.12919,1.13255 2.71811,3.85972 4.8926,4.8926 a 5.2006548,5.2006548 0 0 0 0,2.9265 20.449265,20.449265 0 0 1 -2.91744,2.94463 C 75.56355,29.32843 76.39711,13.98922 88.75546,12.78419 Z"
     id="svg_3"
     style="fill:#ffffff;stroke-width:9.06037" />
</svg>
